<?xml version="1.0" encoding="utf-8"?>
<!-- Generator: Adobe Illustrator 21.0.0, SVG Export Plug-In . SVG Version: 6.00 Build 0)  -->
<svg version="1.1" id="Isolation_Mode" xmlns="http://www.w3.org/2000/svg" xmlns:xlink="http://www.w3.org/1999/xlink" x="0px"
	 y="0px" viewBox="0 0 94.6 108.6" style="enable-background:new 0 0 94.6 108.6;" xml:space="preserve">
<style type="text/css">
	.st0{fill:#FFFFFF;}
</style>
<path d="M78.2,54.5C78.2,54.5,78.2,54.5,78.2,54.5l0-0.3c0,0,0,0,0,0C78.1,54.3,78.1,54.4,78.2,54.5z M78.2,14.6
	c-32.6-12.9-61.8,0-61.8,0v54.5c0.1-0.1,0.2-0.1,0.4,0.1c0.1,0.2-0.1,0.3-0.2,0.4c0,0-0.1-0.1-0.1-0.1v0.4l0,0l0,0v8.2
	c0,0,24.7,21.6,30.9,21.6c0.4,0,0.8-0.1,1.2-0.2c0,0,0-0.1-0.1-0.1c0.3-0.2-0.1-0.5-0.1-0.7c0.1-0.2-0.2-0.6,0.2-0.7
	c0,0,0-0.1,0-0.1c0.1,0,0.1-0.1,0.2,0c0-0.1,0.1-0.1,0.2-0.1c0.2,0.1,0.3-0.1,0.4-0.2c0.1-0.1,0-0.3,0.2-0.3c-0.1,0.1,0,0.2,0.1,0.4
	c0.2,0,0.4,0.2,0.5,0c0.1,0.1,0.1,0,0.2,0c-0.1-0.2,0.2-0.3,0-0.5c0.1,0,0.1-0.1,0.2,0c0.1,0.3,0.1,0.6,0,0.9c0.1,0,0,0.1,0.1,0.2
	c0.2,0.1,0.4,0.1,0.6,0.1c0-0.1,0.1,0,0.2,0c0,0.1,0.1,0.1,0.1,0.2c9.3-4.8,26.8-20.2,26.8-20.2V63.7c-0.1,0-0.1-0.1-0.1-0.2
	c0-0.1,0-0.1,0.1-0.1v-8.7c-0.2-0.3-0.3-0.2-0.5-0.4c0.2-0.1,0.4,0,0.5-0.1c0,0,0,0,0-0.1v-7.4c0,0,0,0,0,0c0,0,0-0.1,0-0.1V14.6z
	 M77.9,36.3L77.9,36.3c0,0.2-0.2,0.3-0.4,0.3C77.6,36.5,77.7,36.2,77.9,36.3z M77.2,39.2L77.2,39.2L77.2,39.2L77.2,39.2z M76.6,72.6
	l0,0.1l-0.5,0.1C76.3,72.5,76.4,72.5,76.6,72.6z M76.1,66.1l0.2,0.2l-0.1,0.1L76.1,66.1z M76.5,68.8L76.5,68.8l0.1,0L76.5,68.8z
	 M76.6,58.3l-0.2-0.2c0.1-0.1,0.3-0.2,0.3-0.1C76.8,58.2,76.7,58.2,76.6,58.3z M76.7,45.3c-0.1,0.1-0.1,0.2-0.3,0.2
	c-0.3-0.1-0.1-0.4,0-0.5C76.6,45.1,76.8,45.1,76.7,45.3z M76.4,35.9L76.4,35.9L76.2,36C76.3,35.9,76.3,35.9,76.4,35.9z M75.8,39.9
	l0.2,0.1l-0.3-0.1L75.8,39.9z M76,54.8c0-0.1,0-0.2-0.1-0.2l0.1-0.2c0.1,0.1-0.2,0.4,0.1,0.5l0.5-0.1c-0.2,0.2,0.1,0.6-0.3,0.8
	c0-0.5-0.6-0.6-1-0.7L76,54.8z M76,57l-0.2,0.2L75.7,57L76,57z M75.4,68.6L75.4,68.6l-0.1,0.2L75.4,68.6z M75.1,29.3
	c0.1,0,0.1,0.1,0.1,0.2l-0.1,0.2L75.1,29.3z M75.2,69.4l-0.1,0l0.1-0.1L75.2,69.4z M75.1,55l-0.3,0.2l-0.2-0.3
	C74.8,54.9,75,55,75.1,55z M74.8,60.7c0.1,0,0.1,0.1,0.1,0.2l-0.2,0L74.8,60.7z M43.4,23.8c-0.1,0.1-0.4-0.1-0.4-0.2
	C43.1,23.7,43.5,23.5,43.4,23.8z M41.7,19.5l0,0.1l-0.2-0.1L41.7,19.5z M41.4,23.3l0.2,0.2L41.4,23.3L41.4,23.3z M41.1,23L41.1,23
	c0,0.1-0.1,0.3-0.2,0.2l0-0.1C41,23.1,41.1,23.1,41.1,23z M40.5,22.5c0.2,0.1,0.2,0.3,0.3,0.5C40.6,22.8,40.5,22.7,40.5,22.5z
	 M40.3,23c-0.1,0.2-0.3,0.4-0.5,0.3C39.8,23.1,40.1,22.9,40.3,23z M39.5,15.7L39.5,15.7l-0.1,0L39.5,15.7z M38.7,20.3l-0.1-0.2
	l0.1-0.1L38.7,20.3z M38.5,18L38.5,18l-0.1,0L38.5,18z M35.9,21.4l-0.1,0.1l0-0.1L35.9,21.4z M16.6,74.8l0.1-0.1l0.1,0.1L16.6,74.8z
	 M17.7,59.8l0.2-0.2l0.2,0.2L17.7,59.8z M18,55.2l0.1-0.1l0.1,0.1L18,55.2z M18.5,57.5l-0.1,0c-0.1-0.1,0.1-0.3,0.2-0.3
	C18.5,57.3,18.4,57.4,18.5,57.5z M18.8,65.3L18.8,65.3l-0.1,0.2L18.8,65.3z M18.9,73.7L18.9,73.7l0.1,0L18.9,73.7z M19.3,64.8
	c-0.1,0-0.1-0.2,0-0.3C19.4,64.6,19.4,64.7,19.3,64.8L19.3,64.8z M19.4,74c0.1-0.3,0.3,0,0.4,0c0.1,0,0.1,0.1,0.1,0.2L19.4,74z
	 M21.6,72.1C21.6,72.1,21.6,72.1,21.6,72.1L21.6,72.1C21.6,72,21.6,72,21.6,72.1L21.6,72.1C21.6,72.1,21.6,72.1,21.6,72.1
	C21.6,72.2,21.6,72.3,21.6,72.1z M21.4,70.2L21.4,70.2c0.1,0,0.1,0,0.1,0.1L21.4,70.2z M22.2,75.6l-0.1-0.1l0.1-0.1L22.2,75.6
	L22.2,75.6z M22.1,74.8l0.1-0.1l0.1,0.1L22.1,74.8z M23.6,67.2l0.2-0.2l0.1,0.1C23.9,67.2,23.7,67.3,23.6,67.2z M24.1,70.5
	c-0.1,0-0.1-0.2,0-0.3l0.1,0.1L24.1,70.5z M25.4,72.7L25.4,72.7l0.2,0L25.4,72.7z M25.7,71l-0.3-0.1l0.1-0.1
	C25.7,70.8,25.8,70.9,25.7,71z M25.5,67.6l0.2-0.3l-0.2,0.5L25.5,67.6z M25.8,69.1L25.8,69.1L26,69L25.8,69.1z M26.4,71.8l0.3-0.2
	l0.2,0.2L26.4,71.8z M39.4,86.8L39.4,86.8L39.4,86.8L39.4,86.8z M39.7,86.8l0-0.1L39.7,86.8L39.7,86.8z M39.8,86.1L39.8,86.1
	L39.8,86.1L39.8,86.1z M40.2,87.4c0,0.1,0.1,0,0.2,0.1C40.3,87.4,40.2,87.5,40.2,87.4z M40.3,88.8L40.3,88.8L40.3,88.8L40.3,88.8z
	 M40.3,87.6C40.3,87.6,40.3,87.6,40.3,87.6C40.4,87.6,40.4,87.6,40.3,87.6C40.4,87.7,40.4,87.6,40.3,87.6
	C40.3,87.6,40.3,87.6,40.3,87.6z M40.6,87.4L40.6,87.4c-0.1,0.1-0.1-0.1-0.2-0.2c0,0,0-0.1,0.1-0.1l0.1,0c0,0,0,0.1,0,0.1
	c0.2,0.3,0.4-0.3,0.4,0.1c0,0,0-0.1-0.1-0.1c-0.1,0,0,0.1-0.1,0.1l0,0L40.6,87.4z M40.4,85.7C40.5,85.7,40.5,85.7,40.4,85.7
	C40.5,85.7,40.4,85.7,40.4,85.7z M41,84.4l0.2,0c0,0.2-0.1,0.2,0,0.4C41,84.7,41,84.8,41,84.9c0,0.1,0.1,0.1,0,0.2
	c-0.1,0-0.1-0.1-0.1-0.2c0.2-0.1,0.1-0.3,0.2-0.4L41,84.4z M41.3,83.3l0.2,0.1l0,0c0.1,0,0,0.1,0,0.3c0,0.1-0.1,0.2,0,0.2l0,0
	c-0.2,0.1-0.3-0.2-0.4,0.1c0-0.1,0-0.2,0-0.2c0.1,0,0.3,0.1,0.3-0.1C41.4,83.4,41.2,83.5,41.3,83.3z M41.4,85.4L41.4,85.4L41.4,85.4
	L41.4,85.4z M41.3,85.2L41.3,85.2L41.3,85.2L41.3,85.2z M41.3,84.5L41.3,84.5L41.3,84.5L41.3,84.5z M40.9,84.2l0-0.1L40.9,84.2
	L40.9,84.2z M40.9,83.7l0-0.1C40.9,83.6,41,83.6,40.9,83.7z M40.8,86.6c0-0.1-0.1-0.1-0.1-0.1C40.9,86.4,40.9,86.5,40.8,86.6z
	 M40.8,87.2C40.7,87.2,40.7,87.1,40.8,87.2L40.7,87C40.7,87.1,40.8,87.1,40.8,87.2z M40.8,90L40.8,90L40.8,90L40.8,90z M40.8,87.6
	c0-0.1,0.1-0.1,0.1,0L40.8,87.6z M41,87.4L41,87.4L41,87.4L41,87.4z M41.1,87C41,87,41,87,41.1,87c-0.1-0.1-0.1,0-0.1,0
	c-0.1,0-0.1-0.2-0.1-0.3C40.8,86.8,40.9,86.9,41.1,87C41,86.9,41,86.9,41.1,87C41,87,41.1,87,41.1,87c0,0,0.1,0.1,0.1,0.1
	C40.9,87.2,41,87.1,41.1,87z M41.6,86.7c-0.1-0.1-0.3-0.2-0.2-0.4c-0.2,0,0-0.3-0.3-0.3c0.1-0.1,0-0.1,0-0.2c-0.1,0-0.1-0.1,0-0.2
	c0.1,0,0.1-0.1,0.1-0.1c0,0-0.1,0-0.1,0l0-0.1l0.1-0.1c0,0.1,0,0.2,0.1,0.3c-0.2,0-0.1,0.2-0.2,0.2c0,0,0.1,0,0.1,0l0-0.1
	c0.4,0.1,0.1,0.5,0.5,0.6C41.7,86.5,41.5,86.6,41.6,86.7z M41.8,86.3C41.8,86.3,41.8,86.2,41.8,86.3c-0.1-0.1,0.1-0.3-0.1-0.4
	c-0.1-0.1-0.2-0.3-0.4-0.2l0,0c0,0,0.1,0,0.1,0l0-0.1l0.1,0.1c0.1-0.1,0.1-0.2-0.1-0.2l0,0c0.2,0,0.2,0.3,0.3,0.3l0-0.1
	c0,0.2-0.1,0.4,0.1,0.5C41.9,86.2,41.8,86.2,41.8,86.3z M41.9,83.8l0,0.1l0,0C41.9,84,41.9,83.8,41.9,83.8z M41.9,84.1l0,0.1
	C41.9,84.2,41.9,84.2,41.9,84.1L41.9,84.1z M41.8,83.6L41.8,83.6C41.8,83.5,41.8,83.5,41.8,83.6C41.8,83.6,41.8,83.6,41.8,83.6z
	 M42.1,84.1L42.1,84.1L42.1,84.1L42.1,84.1z M42.2,83.4c0.1,0.1,0.1-0.1,0.1-0.1c-0.1,0.1,0,0.2,0,0.3c0.1,0,0.1,0.1,0.1,0.1
	C42.3,83.6,42.1,83.5,42.2,83.4z M46.5,88.7c0-0.1-0.1-0.2-0.1-0.2C46.5,88.4,46.5,88.6,46.5,88.7z M47.9,88.2L47.9,88.2L47.9,88.2
	C47.8,88.1,47.9,88.2,47.9,88.2z M48.3,88.5c0,0.2,0.1,0.3,0,0.5c-0.1-0.2-0.2-0.4-0.1-0.6c-0.1,0-0.1-0.1-0.1-0.2l0-0.1
	c0.1,0.2,0.2,0.3,0.3,0.5C48.4,88.5,48.4,88.5,48.3,88.5z M48.9,86.7l-0.1-0.1l0.1,0L48.9,86.7z M49.3,86.7
	c-0.1-0.1-0.3-0.1-0.3-0.3c0,0,0,0,0.1-0.1c0.1,0.1,0,0.2,0.2,0.2l0-0.1C49.3,86.5,49.4,86.6,49.3,86.7z M49.1,82.3l0.1,0.1l0,0
	L49.1,82.3z M49.4,81.3L49.4,81.3c0,0-0.1-0.1-0.2-0.2c0.1,0,0.2,0,0.3,0.1C49.5,81.3,49.4,81.3,49.4,81.3L49.4,81.3
	C49.4,81.3,49.4,81.3,49.4,81.3z M49.4,96.5L49.4,96.5L49.4,96.5C49.5,96.4,49.4,96.4,49.4,96.5z M49.5,86.5l0.1,0.1
	C49.5,86.6,49.5,86.5,49.5,86.5z M49.8,86.3C49.8,86.4,49.8,86.3,49.8,86.3L49.8,86.3C49.8,86.3,49.8,86.3,49.8,86.3z M49.9,83.7
	c-0.1,0-0.2,0.1-0.3,0.2c0-0.2-0.2-0.2-0.1-0.4c0,0-0.1-0.1-0.1-0.2l0-0.1c-0.1,0-0.1-0.1-0.1-0.2c0.1,0,0.1-0.1,0.1-0.1
	c0-0.1,0.1-0.1,0.1-0.1C49.7,83.1,49.6,83.5,49.9,83.7L49.9,83.7z M49.6,81.6c0.1,0,0.1,0.1,0.1,0.2C49.6,81.7,49.6,81.7,49.6,81.6z
	 M49.7,82.2C49.7,82.3,49.6,82.2,49.7,82.2l-0.1-0.1L49.7,82.2z M49.9,82.7C49.9,82.8,49.9,82.8,49.9,82.7c0,0,0-0.1,0-0.2
	c0,0,0.1,0,0.1-0.1c0,0,0-0.1-0.1-0.1l-0.1,0c0-0.1,0-0.2,0-0.3c0.1,0,0.2-0.1,0.2,0c0,0-0.1,0.1-0.1,0c0,0.2,0.3,0.3,0.2,0.5
	l0.1,0.1C50,82.8,49.9,82.7,49.9,82.7z M50,84.4L50,84.4L50,84.4L50,84.4z M50.1,86c0,0,0.1,0,0.1,0.1l-0.1,0L50.1,86z M50.2,86.3
	L50.2,86.3C50.2,86.2,50.3,86.2,50.2,86.3L50.2,86.3z M50.4,95.7c0-0.1,0.1-0.1,0.2-0.1l0,0.1C50.5,95.7,50.4,95.8,50.4,95.7z
	 M50.6,84.3l0-0.1c0.3,0.2,0.3,0.5,0.4,0.8c-0.1,0.1-0.1,0.2-0.2,0.2c-0.1,0-0.1-0.1-0.2-0.2C50.8,84.8,50.5,84.6,50.6,84.3
	C50.7,84.3,50.6,84.3,50.6,84.3z M51,83.6c0.1,0.1,0.3,0.1,0.2,0.3c0.2,0,0,0.2,0.2,0.2c0,0.1,0,0.1,0,0.2c0.1,0.1,0.2,0.2,0.3,0.4
	c-0.3-0.1-0.4-0.3-0.5-0.6c0.2-0.2-0.1-0.2-0.1-0.3c-0.1-0.1-0.3,0-0.3-0.1l0.1-0.1c0,0.1,0.1,0.1,0.1,0.1
	C51.1,83.8,51,83.7,51,83.6z M51.5,89.3c-0.1,0-0.1-0.1-0.1-0.1L51.5,89.3z M51.4,86.8L51.4,86.8l-0.1-0.1L51.4,86.8z M50.9,86.8
	c0.1-0.1,0.1,0,0.1,0c0,0.2,0.1,0.3,0,0.5c0,0.2,0.2,0.3,0.2,0.6C50.9,87.7,50.9,87.3,50.9,86.8C50.9,86.9,50.9,86.9,50.9,86.8z
	 M50.8,85.4L50.8,85.4L50.8,85.4L50.8,85.4z M50.9,85.6l0.1,0.2l0,0L50.9,85.6z M51.2,88.1c-0.1,0.1,0.2,0.3,0,0.4
	C51.2,88.4,51.1,88.2,51.2,88.1z M50.8,94.1C50.7,94.1,50.7,94.1,50.8,94.1L50.8,94.1C50.8,94.1,50.8,94.1,50.8,94.1z M50.8,97.2
	c-0.1,0,0-0.1-0.1-0.1l0.1-0.1C50.9,97.1,50.8,97.2,50.8,97.2z M51.5,97.9c-0.1,0-0.2-0.1-0.3,0c-0.1-0.1-0.3-0.2-0.2-0.4
	c0.2,0,0.3,0,0.5,0.1C51.5,97.7,51.6,97.8,51.5,97.9z M51.5,97.1c-0.1-0.1-0.2-0.3,0-0.4l0.3,0.9C51.5,97.5,51.6,97.2,51.5,97.1z
	 M51.9,95.3l0,0.1c-0.3-0.2-0.3,0.3-0.5,0.2c-0.1,0.3,0.2,0.6-0.1,0.9l0,0l-0.1,0.3c-0.1,0-0.2,0-0.3,0c-0.2-0.3,0.2-0.6-0.1-0.8
	c0-0.1,0.1-0.1,0.1-0.2c-0.1-0.2-0.3-0.5-0.3-0.7c0-0.2,0.3-0.1,0.3-0.3c0-0.1-0.1-0.2-0.1-0.3c0.1,0.1,0.2,0.4,0.3,0.3
	c0,0,0-0.1,0-0.1c0.2,0.1,0.1-0.1,0.3-0.2l-0.1-0.1c0,0,0.1,0,0.1,0c0,0,0-0.1,0-0.1l0.1,0c0,0,0,0.1,0,0.1c0.1,0,0.1,0.2,0.3,0.2
	c0-0.2,0-0.3-0.1-0.5c0.3,0,0.3,0.3,0.2,0.5c0,0-0.1,0-0.1,0c-0.1,0.1,0.1,0.2,0.1,0.4l0.1,0C51.7,94.9,52,95.2,51.9,95.3z M52,86.3
	C51.9,86.3,51.9,86.2,52,86.3l0-0.3C52,86.1,52,86.2,52,86.3z M51.9,87.9c0,0-0.1,0.1-0.2,0C51.7,87.8,51.9,87.9,51.9,87.9
	C52,87.8,52,87.9,51.9,87.9z M51.9,85.9c-0.1-0.1-0.1-0.1-0.2-0.2c0.1-0.1,0.1,0.1,0.2,0.1C51.9,85.8,52,85.9,51.9,85.9z M51.7,93.6
	L51.7,93.6L51.7,93.6L51.7,93.6z M52.2,92.1l0-0.1L52.2,92.1L52.2,92.1z M52.1,89.2L52,89.1c0,0-0.1,0.1,0,0.1l0,0
	c0-0.2-0.3-0.5-0.2-0.7c0.1,0,0.2,0,0.4,0c0.1,0.1,0,0.2,0.2,0.3C52.2,89,52.4,89.2,52.1,89.2z M52,86.4l0-0.1L52,86.4L52,86.4z
	 M52.3,91.2L52.3,91.2c0.1,0.1,0.3,0.1,0.2,0.3C52.3,91.5,52.3,91.3,52.3,91.2z M52.4,91.7c-0.1,0-0.1-0.1,0-0.1L52.4,91.7z
	 M52.5,94.8c-0.1,0-0.1,0-0.1-0.1l0-0.1C52.5,94.7,52.6,94.8,52.5,94.8z M52.3,94.6L52.3,94.6L52.3,94.6L52.3,94.6z M52.7,93.4
	c-0.1,0.1-0.2,0-0.2,0c-0.1-0.1,0.1-0.2,0-0.3c-0.1-0.1-0.3-0.2-0.1-0.3l0-0.1l0.1,0c0.1,0.2,0.2,0.5,0.4,0.7L52.7,93.4z M52.6,88.6
	L52.6,88.6l0.1,0L52.6,88.6z M53.2,95.4c-0.1,0,0-0.2-0.1-0.2C53.2,95.3,53.3,95.4,53.2,95.4z M53.8,94.3c0,0.2,0,0.4-0.1,0.5
	c-0.1,0.1,0.1,0.3-0.1,0.3c-0.1-0.1-0.5-0.2-0.2-0.4c0.1,0,0.2,0.1,0.3-0.1c-0.3-0.1-0.1-0.4-0.2-0.7c0.2-0.2-0.1-0.3,0-0.5
	c0.2,0,0.2,0.2,0.3,0.3c0.1,0.2,0,0.2-0.1,0.4c0,0,0.1,0,0.1,0C53.8,94.2,53.8,94.3,53.8,94.3z M54.3,94.4l0-0.1l0.1,0
	C54.3,94.3,54.3,94.4,54.3,94.4L54.3,94.4z M55,91.2c-0.1-0.1-0.2,0-0.4-0.1c0,0.1,0,0.3,0.1,0.4c-0.1,0.1,0,0.4-0.2,0.4
	c-0.3,0.3,0,0.7,0,1c-0.1-0.1-0.2,0.1-0.2,0.2c0,0.1-0.1,0.2,0,0.3l0.1,0c0,0.3-0.1,0.5-0.2,0.7c-0.3,0-0.4-0.2-0.4-0.4
	c0-0.1,0.1-0.2,0-0.3l-0.1,0l0-0.1c-0.2-0.1-0.1-0.3-0.1-0.4c0-0.1,0.1-0.1,0.1-0.2c-0.3-0.2-0.5-0.1-0.8-0.1l0,0.1
	c-0.1,0-0.2-0.1-0.1-0.2c0.2,0.1,0.3-0.1,0.4-0.1l-0.1-0.4c0.3-0.1,0.4-0.4,0.4-0.6c-0.2-0.4,0.1-0.7,0.2-1c0-0.1-0.1-0.1,0-0.2
	c0.2,0,0-0.4,0.3-0.3c0.1,0.1-0.1,0.3,0,0.4c0.1,0.2,0,0.4,0.2,0.5c0.1-0.2,0.3-0.1,0.4-0.3c0,0,0-0.1-0.1-0.1l0-0.1
	c0.1,0.1,0.1,0.2,0.2,0.3C54.6,90.9,54.9,91,55,91.2C55,91.1,55,91.2,55,91.2z M53.7,85.9C53.6,86.2,54,86,54,86.4
	c-0.1,0.2-0.1,0.5,0.1,0.6c0.1,0.2,0.1,0.5,0.2,0.7c-0.1,0-0.3-0.1-0.3,0.1l0,0.2c-0.3,0.2-0.3-0.1-0.4-0.2c0-0.1,0-0.2-0.1-0.3
	c0,0-0.1,0-0.1-0.1l0-0.1l-0.1,0l0,0.1c0,0-0.1,0-0.1-0.1c0-0.1,0.1-0.1,0.1-0.1l0.4,0.1c0-0.1-0.1-0.3-0.1-0.3
	c0-0.2-0.3-0.3-0.3-0.5c-0.2-0.2-0.2-0.5-0.2-0.7l0-0.2c0.1-0.1,0.3,0.1,0.3,0.2C53.7,85.7,53.5,85.9,53.7,85.9z M54.2,89L54.2,89
	l0-0.1L54.2,89z M54.3,89.2L54.3,89.2L54.3,89.2L54.3,89.2z M54.1,88.7L54.1,88.7L54.1,88.7L54.1,88.7z M53.9,88.2L53.9,88.2
	L53.9,88.2L53.9,88.2z M60.5,83.8c-0.1-0.1,0-0.2,0.1-0.3l0.1,0.1L60.5,83.8z M62.7,88.2L62.7,88c0.1,0,0.2,0,0.2,0L62.7,88.2z
	 M66.2,83.3l0.1,0l0.2,0.1L66.2,83.3z M66.7,82.9c0.1-0.1,0.1-0.3,0.3-0.2l0.1,0.1L66.7,82.9z M67,78.2L67,78.2l0.1,0L67,78.2z
	 M67.6,77.7L67.6,77.7l0.1,0L67.6,77.7z M68.8,74c-0.1-0.1-0.1-0.3,0-0.3c0.1,0,0.1,0.1,0.1,0.2L68.8,74z M66.6,66.6l-0.2,0.1
	L66.6,66.6L66.6,66.6z M64.6,64.4c-0.2,0.1-0.1,0.3-0.1,0.4l0.2,0.1l-0.4-0.2c0.1-0.1,0.2-0.3,0.2-0.4L64.6,64.4z M64.5,61.4
	L64.5,61.4l0.1,0L64.5,61.4z M62,60.6l-0.1,0L62,60.6L62,60.6z M58.8,57.9l-0.4-0.2l0.1-0.2L58.8,57.9z M57.4,57.9l0.3-0.2l0.6,0.1
	L57.4,57.9z M57.7,60l-0.3,0l0.1-0.1L57.7,60z M57.1,57.9c-0.2,0.1-0.3,0-0.5,0C56.8,57.9,57,57.8,57.1,57.9z M28.4,67l0.1,0
	c0.1,0.2-0.1,0.2-0.2,0.4l-0.1-0.1c0-0.1,0.1-0.1,0.2-0.1L28.4,67z M29.2,66.6c0,0.1,0,0.3,0.1,0.3c0.4-0.5,0.6,0.2,0.8,0.4
	c0.1,0.2-0.1,0.2-0.2,0.4c-0.4,0-0.4-0.3-0.7-0.5C29.6,67,28.9,66.8,29.2,66.6z M29.2,67.6L29.2,67.6l-0.2,0l0.1-0.1L29.2,67.6z
	 M30.8,67.1L30.8,67.1l0.1,0.2L30.8,67.1z M31.4,66.7l0.1,0.1l-0.1,0.1l-0.2-0.1L31.4,66.7z M31.2,62.5L31.2,62.5l0.1,0L31.2,62.5z
	 M31.3,61.9l-0.1-0.2c0.1-0.1,0.2,0.1,0.3,0.1C31.5,61.9,31.4,61.9,31.3,61.9z M33.5,59.3L33.5,59.3l0.2-0.1L33.5,59.3z M33.9,62
	L33.9,62l0.1,0.2L33.9,62z M34.3,63.5L34.3,63.5l0.1,0.2L34.3,63.5z M36.1,58.2l0.2-0.2l0.1,0.1L36.1,58.2z M36.6,61.6
	c-0.1,0.2,0,0.5-0.3,0.5l-0.1-0.1C36.3,61.8,36.4,61.5,36.6,61.6z M38.8,61.1l0.2,0.2c-0.7-0.2-0.4,0.6-1,0.6
	c-0.4-0.2-0.9,0.2-1.2,0.1c0.3-0.6,1.1-0.1,1.4-0.8C38.4,61.3,38.7,61.5,38.8,61.1z M38.3,58.1L38.3,58.1l0.1,0L38.3,58.1z
	 M38.7,55.9L38.7,55.9l0.1,0L38.7,55.9z M39.1,59.5L39.1,59.5l0.2-0.1L39.1,59.5z M39.4,61.1L39.4,61.1l-0.1,0.1L39.4,61.1z
	 M32.7,41.4l-0.1,0l0.2-0.3C32.7,41.2,32.6,41.3,32.7,41.4z M32.9,38.8c0.1-0.1,0.1-0.2,0.3-0.2l0.1,0.1
	C33.2,38.8,33.1,38.9,32.9,38.8z M33.4,36.8L33.4,36.8l0.1,0L33.4,36.8z M36.1,41.2c0.1,0,0.1,0.1,0.1,0.2l-0.1,0
	C36,41.4,36,41.3,36.1,41.2z M36.5,35.6l0.1,0.1l-0.1,0.1L36.5,35.6z M36.9,43.3l0.1-0.2l0,0.1L36.9,43.3z M38.4,43.7l0.1-0.1
	l0.1,0.1l-0.1,0.1L38.4,43.7z M40.5,43.5c-0.4,0-0.3-0.4-0.6-0.5c0.1-0.3,0.1-0.7,0.5-0.7C40.2,42.7,41.3,43.1,40.5,43.5z
	 M39.9,44.8l-0.1,0l0-0.1L39.9,44.8z M40.9,41.9l0.1,0c0,0.1,0,0.2-0.1,0.2L40.9,41.9z M63.9,38.2l-0.1,0L63.9,38.2L63.9,38.2z
	 M63.3,36.7l-0.2,0.1L63.3,36.7L63.3,36.7z M62.7,41.8l-0.1,0L62.7,41.8L62.7,41.8z M62.2,36.8l-0.4-0.2c0.1-0.1,0.1-0.2,0.3-0.2
	C62.2,36.5,62.2,36.8,62.2,36.8z M60.6,34.5l-0.1,0C60.5,34.5,60.5,34.5,60.6,34.5c0-0.2,0.2-0.3,0.2-0.4
	C61.3,34.4,60.8,34.4,60.6,34.5C60.6,34.5,60.6,34.5,60.6,34.5z M60.7,33.3l0.1,0.1l-0.1,0.1L60.7,33.3z M58.3,35.9l-0.4,0.2
	l0.2-0.3L58.3,35.9z M57.9,44.5l-0.1-0.2l0.1,0.1L57.9,44.5z M57.5,44L57.3,44L57.5,44L57.5,44z M57,38.3l-0.1,0l0-0.1L57,38.3z
	 M56.7,42.4l-0.1,0.1l-0.2-0.3C56.5,42.3,56.6,42.4,56.7,42.4z M54.1,42.8l-0.2,0.1L54.1,42.8L54.1,42.8z M52.4,45.1
	c0,0-0.4,0.1-0.4-0.2c0.1,0,0.2,0,0.2-0.1C52.3,44.9,52.5,44.9,52.4,45.1z M73.2,73.5l-0.1,0.2L73,73.4C73,73.4,73.1,73.4,73.2,73.5
	z M72.7,72.5l0.2-0.2c0.1,0,0.1,0.1,0.1,0.2L72.7,72.5z M72.2,72.3c0-0.1,0.1-0.1,0.2-0.1c0.1,0,0.1,0.1,0.1,0.2L72.2,72.3z
	 M72.2,76.5l0.2-0.2C72.4,76.4,72.3,76.6,72.2,76.5z M70.4,80.1L70.3,80l0.1-0.1l0.1,0.1L70.4,80.1z M70.3,66.8
	c-0.1-0.3,0.2-0.7,0.3-1C70.6,66.1,70.4,66.5,70.3,66.8z M70.6,72.2l0.2,0L70.6,72.2L70.6,72.2z M70.7,81.2c0-0.1,0-0.2,0-0.2
	c0.1,0,0.1,0.1,0.1,0.2L70.7,81.2z M71.3,77.7c-0.2,0-0.3,0.2-0.3,0.4c-0.1-0.3,0.3-0.7,0.2-1.1C71.4,77.1,71.4,77.5,71.3,77.7z
	 M71.2,69.1L71.2,69.1l0.1,0L71.2,69.1z M71.4,71l0.1-0.1c0.1,0,0.1,0.1,0.1,0.2L71.4,71z M72.7,78.3l0,0.1l-0.6-0.1L72.7,78.3z
	 M72.6,78.9L72.6,78.9l0.1,0L72.6,78.9z M72.8,77.6l-0.2-0.4l0.8-0.1l0,0.1c0.1-0.1,0.2,0,0.3,0.1C73.6,78,73.1,77.3,72.8,77.6z
	 M75.1,80.2L75,80L75.1,80.2L75.1,80.2z M75.3,74.5c-0.2,0.4-0.6,0.9-0.3,1.3l-1-0.1c-0.1,0.2,0,0.5,0,0.8c0.2,0.2,0.5,0.3,0.4,0.6
	l-0.1,0.1c0.1-0.6-0.6-0.4-0.9-0.5c0.2-0.1,0.1-0.3,0.1-0.4l-0.3,0l0-0.1l0.1,0c0-0.4,0.6-0.1,0.8-0.6c0.1,0.1,0.2,0,0.3,0l0.1-0.1
	c0,0.1,0,0.4,0.2,0.3c0.1-0.3,0-0.6,0.2-0.8c0.1-0.4,0.6-0.2,0.4-0.7L75.1,74c0.7-0.1,1.1-1.3,1.8-0.3l-0.4,0l0,0.6
	C76.2,74.3,75.7,74.2,75.3,74.5z M76.5,78.6l-0.2,0.3c0.2-0.2-0.1-0.5,0.1-0.6C76.5,78.3,76.6,78.5,76.5,78.6z M76.9,78.5
	c0-0.1,0-0.2,0-0.2C76.9,78.4,77,78.5,76.9,78.5z M77.3,55.1l-0.4-0.4c0.1-0.1,0.3,0.2,0.4,0.2C77.3,55,77.3,55.1,77.3,55.1z
	 M77.1,54l0.1,0l0.1,0.1L77.1,54z M77.6,40.7c-0.1,0.3,0.4,0.8-0.1,1c-0.8-0.3,0-1.1-0.9-1.4c0.2-0.3,0.8-0.1,0.7-0.6l-0.1-0.1
	c0.5-0.2,0.3,0.8,0.9,0.4C78.2,40.4,77.9,40.5,77.6,40.7z M38.8,23.8c-0.2,0.1-0.5-0.1-0.5,0.2c0,0,0,0,0,0.1h0.9l0,0
	C39.1,24,38.9,23.9,38.8,23.8z M52.2,57.5c0.5,0.1,1,0.2,1.5-0.1c1-0.3,2.2,0,3.2-0.5c0.5-0.3,0.9,0.4,1.3-0.1
	c-2.4-1.2-4.9-2.2-7.3-2.9C51.3,55.2,51.7,56.4,52.2,57.5z M52.8,55.1L52.8,55.1l-0.1,0L52.8,55.1z"/>
<g>
	<path class="st0" d="M43.6,66.8c0,1.9,0.9,2.9,2.6,3v1.1c-2.4,0.7-4.3,1.9-5.9,3.6c-1.6,1.7-2.8,3.5-3.6,5.4
		c-1.6-2.2-3.3-4.1-5.2-5.7c-1.9-1.6-4.1-2.7-6.6-3.3v-1.1h1.5c1.3,0,2.2-0.4,2.6-1.2c0.4-0.8,0.7-2.1,0.7-3.9V43.8
		c0-1.6-0.3-2.8-1-3.5c-0.7-0.7-1.4-1-2.3-1c-0.5,0-1,0.2-1.6,0.6c-0.6,0.4-1,0.8-1.3,1.2l-0.7-1.2L35,28.7c1.1,0.6,2.2,1.3,3.2,2
		c1,0.7,1.9,1.5,2.8,2.3c0.8,0.9,1.4,1.9,1.9,3c0.5,1.1,0.7,2.4,0.7,3.9l15.3-11.2c1.2,1.8,2.8,3.6,4.7,5.2c1.9,1.7,4,3,6.4,3.9v1.1
		c-1.8,0-3.1,0.4-3.9,1.1c-0.8,0.7-1.2,2-1.2,3.8V65c0,1.5,0.3,2.6,0.9,3.3c0.6,0.7,1.3,1,2.1,1c0.7,0,1.3-0.2,1.8-0.5
		c0.5-0.3,1.1-0.7,1.8-1.2l0.5,0.9L58.4,79.9c-1.9-1.2-3.3-2.4-4.3-3.6c-1-1.2-1.8-2.5-2.2-3.6c-0.5-1.2-0.8-2.2-0.9-3.3
		c-0.1-1-0.1-1.9-0.1-2.8V42.5c0-0.9-0.2-1.7-0.5-2.6c-0.3-0.8-0.9-1.3-1.8-1.3c-0.5,0-0.9,0.1-1.2,0.2c-0.3,0.2-0.7,0.4-1,0.6
		l-2.8,2V66.8z"/>
</g>
</svg>
